<?xml version="1.0" encoding="utf-8"?>
<!-- Generator: Adobe Illustrator 19.2.1, SVG Export Plug-In . SVG Version: 6.00 Build 0)  -->
<svg version="1.1" id="Layer_1" xmlns="http://www.w3.org/2000/svg" xmlns:xlink="http://www.w3.org/1999/xlink" x="0px" y="0px"
	 viewBox="0 0 258.1 258.1" style="enable-background:new 0 0 258.1 258.1;" xml:space="preserve">
<style type="text/css">
	.st0{fill:#FFFFFF;}
</style>
<g id="BzF7J0_1_">
	<g>
		<path class="st0" d="M258.1,38.8c0,60.2,0,120.4,0,180.6c-0.2,0.6-0.4,1.3-0.5,1.9c-4,18.3-15,30.1-32.9,35.5
			c-1.8,0.5-3.6,0.9-5.4,1.3c-16.6,0-33.3,0-49.9,0c-0.1-0.7-0.2-1.5-0.2-2.2c0-30.9,0-61.7,0-92.6c0-0.8,0-1.6,0-2.7
			c1,0,1.8,0,2.6,0c12.6,0,25.3,0,37.9,0c1.8,0,2.5-0.4,2.5-2.4c-0.1-12.8,0-25.6-0.1-38.3c0-0.7-0.1-1.5-0.1-2.5
			c-14.4,0-28.5,0-42.7,0c0-6.7-0.3-13.1,0.1-19.4c0.4-6.1,4.2-9.2,10.2-9.2c9.9,0,19.8,0,29.7,0c0.9,0,1.7-0.1,2.6-0.1
			c0-14.4,0-28.6,0-42.9c-0.8,0-1.5,0-2.2,0c-10.5,0-21,0-31.5,0c-9.3,0-17.8,2.6-25.5,8c-13,9.2-20.6,22-22.9,37.6
			c-1.2,7.8-0.7,15.8-0.9,23.6c0,0.8,0,1.6,0,2.6c-10.7,0-21,0-31.4,0c-0.1,0.7-0.1,1.1-0.1,1.6c0,13.1,0,26.3,0,39.4
			c0,1.8,0.7,2,2.2,2c8.9,0,17.9,0,26.8,0c0.8,0,1.6,0,2.6,0c0,32.6,0,65.1,0,97.5c-30.1,0-60.2,0-90.3,0c-0.6-0.2-1.2-0.4-1.7-0.5
			c-18.4-4-30.3-14.9-35.7-32.9c-0.5-1.8-0.9-3.6-1.3-5.4C0,159.2,0,99,0,38.8c0.2-0.9,0.5-1.8,0.7-2.8C4.8,18.4,15.6,6.9,32.8,1.5
			c1.9-0.6,4-1,6-1.5C99,0,159.2,0,219.4,0c0.5,0.2,1,0.4,1.5,0.5c18.5,3.9,30.5,15,35.9,33.1C257.4,35.3,257.7,37,258.1,38.8z"/>
	</g>
</g>
</svg>
